<?xml version="1.0" encoding="utf-8"?>
<!-- Generator: Adobe Illustrator 26.3.1, SVG Export Plug-In . SVG Version: 6.00 Build 0)  -->
<svg version="1.1" id="Layer_1" xmlns="http://www.w3.org/2000/svg" xmlns:xlink="http://www.w3.org/1999/xlink" x="0px" y="0px"
	 viewBox="0 0 1021.9 397.3" style="enable-background:new 0 0 1021.9 397.3;" xml:space="preserve">
<style type="text/css">
	.st0{fill:url(#SVGID_1_);}
	.st1{fill:#233374;}
	.st2{fill:#FFFFFF;}
	.st3{fill:none;}
</style>
<linearGradient id="SVGID_1_" gradientUnits="userSpaceOnUse" x1="0" y1="163.9807" x2="1021.3501" y2="163.9807">
	<stop  offset="0" style="stop-color:#1F2354"/>
	<stop  offset="0.5" style="stop-color:#0B3782"/>
	<stop  offset="1" style="stop-color:#1F2354"/>
</linearGradient>
<rect class="st0" width="1021.4" height="328"/>
<path class="st1" d="M140.9,359.5c0-3,2.6-5.2,7.3-5.2c5.3,0,10.8,1.7,15,5.5l6.1-8c-5.1-4.5-11.9-6.9-20.1-6.9
	c-12.1,0-19.5,6.9-19.5,15.2c0,19,29.7,12.8,29.7,21.8c0,2.9-2.9,5.5-9,5.5c-7.1,0-12.7-3.1-16.4-6.9l-5.9,8.6
	c4.8,4.8,11.9,8,21.8,8v0.1c13.9,0,20.6-6.9,20.6-16.3C170.5,362.2,140.9,367.4,140.9,359.5z"/>
<path class="st1" d="M220.7,344.9H207l-19.9,52.1h12.5l3.2-8.8h22l3.2,8.8h12.5L220.7,344.9z M205.9,378.5l8-22.4l8,22.4H205.9z"/>
<polygon class="st1" points="271.1,387.3 271.1,345 260.1,345 260.1,397.1 292.9,397.1 292.9,387.3 "/>
<polygon class="st1" points="305.1,345 305.1,354.7 319.9,354.7 319.9,397.1 330.8,397.1 330.8,354.7 345.5,354.7 345.5,345 "/>
<polygon class="st1" points="548.4,369.4 568.8,345 555.3,345 537.1,368.2 537.1,345 526.1,345 526.1,397.1 537.1,397.1 
	537.1,381.1 541.1,376.2 556.7,397.1 570.2,397.1 "/>
<polygon class="st1" points="625.9,354.7 625.9,345 590.4,345 590.4,397.1 625.9,397.1 625.9,387.3 601.1,387.3 601.1,375.5 
	625.4,375.5 625.4,365.7 601.1,365.7 601.1,354.7 "/>
<path class="st1" d="M710.2,387.7c-9.3,0-16-7.1-16-16.6c0-9.6,6.7-16.6,16-16.6c5.3,0,9.9,3.3,12,7.4l9.3-4.6
	C728,351,721.4,345,710.2,345c-15.3,0-27.2,10.6-27.2,26.2c0,15.6,11.9,26.2,27.2,26.2c11.3,0,17.7-6.1,21.4-12.4l-9.3-4.5
	C720.1,384.6,715.5,387.7,710.2,387.7z"/>
<rect x="753.5" y="345" class="st1" width="10.8" height="52.1"/>
<polygon class="st1" points="881.5,345 869.1,365.9 856.5,345 844.3,345 863.7,375.8 863.7,397.1 874.5,397.1 874.5,375.8 
	893.7,345 "/>
<polygon class="st1" points="413.8,387.3 413.8,345 402.8,345 402.8,397.1 435.6,397.1 435.6,387.3 "/>
<path class="st1" d="M486.1,344.9h-13.7l-19.9,52.1H465l3.2-8.8h22l3.2,8.8h12.5L486.1,344.9z M471.2,378.5l8-22.4l8,22.4H471.2z"/>
<polygon class="st1" points="786.4,345 786.4,354.7 801.2,354.7 801.2,397.1 812.1,397.1 812.1,354.7 826.8,354.7 826.8,345 "/>
<path class="st2" d="M824.9,274.6c-9,0-15.6-1.3-19.7-3.8c-4.1-2.6-6.8-5.8-8.1-9.7c-1.3-4.1-1.9-12.4-1.9-26.9V42h-5.8l-87.8,38.7
	v9.6c8.6-3.7,19-8.9,25-8.9c3.8,0,7.9,0.1,10.8,2c2.9,1.9,4,5.1,5,7.9c1,2.7,1.6,9.5,1.6,20.4v122.4c0,14.9-0.8,24.3-2.3,28.4
	s-5.9,7.3-10.2,9.6c-4.3,2.3-10.2,3-20.4,3h-6.3v6.9h125.6v-7.4H824.9z"/>
<path class="st2" d="M978.3,157.3c-7.2-9.7-16.6-17-30.4-23.6c10.7-6.2,18-13.2,22.9-21.2c5-8.1,5.7-16.5,5.7-25.2
	c0-13.3-4-21.7-14.8-31.7c-10.7-10-24.3-14.5-40.8-14.5c-16.2,0-34.7,2.9-48,12.7c-13.2,9.7-25.4,21.5-33.8,40.8l7.9,3.7
	c11.5-17.2,26.4-28.6,42.8-28.6c10.6,0,18.8,4.5,25.9,11.4c7.1,6.9,8.8,14.1,8.8,23.8c0,7-0.4,13.9-4.2,20.7
	c-3.7,6.7-8.7,11.8-13.8,15.1c-5.1,3.3-13.5,6.8-26.8,10.6v7h0c21.7,5.1,41.5,14.9,52.8,28.3c11.2,13.4,15.9,26.5,15.9,42.4
	c0,10.4-2.1,21.5-8.4,28.3c-6.2,6.8-13.7,10.3-22.3,11c-15.1,1.3-19.8-7.8-31.2-17.1c-11.4-9.2-17.5-13.5-19.4-14.4
	c-3.4-1.6-8.5-2-12.3-2c-5,0-12.8,1.9-16.7,5.7c-3.8,3.7-5.8,8.2-5.8,13.6c0,7.3,3.4,17,10,21.7c9.3,6.6,26.4,10.9,46.5,10.9
	c30.3,0,52.9-10,70.9-27.2c18.1-17.3,29.5-36.8,29.5-61.4C989.2,183.8,985.5,167,978.3,157.3z"/>
<polygon class="st3" points="638.6,41.9 561,41.9 531.7,91.3 502.6,41.9 422.7,41.9 492.6,158.8 418.6,288.9 496.3,288.9 
	533.1,226.9 568.5,288.9 568.5,288.9 649,288.9 571.7,158.1 "/>
<rect x="681.5" y="15" class="st3" width="324.8" height="298"/>
<polygon class="st3" points="124.1,108.1 209.3,108.1 204.8,41.4 52.5,41.4 52.5,288.9 124.1,288.9 124.1,206.7 193.9,206.7 
	193.9,139.9 124.1,139.9 "/>
<path class="st2" d="M331,88.3c-6,0-11.2,2.5-15.4,6.7c-4.3,4.1-6.4,9.1-6.4,15v105.6c0,5.6,2.1,10.5,6.4,14.6
	c4.3,4.1,9.4,6.2,15.4,6.2c6,0,11.6-2.1,15.7-6.2c4.1-4.1,6.2-9,6.2-14.6V110c0-5.8-2.1-10.8-6.2-15C342.6,90.9,337.1,88.3,331,88.3
	z"/>
<path class="st2" d="M1011.3,10L10,10v308l1001.3,0L1011.3,10z M193.9,206.7h-69.7v82.2H52.5V41.4h152.3l4.4,66.7h-85.1v31.7h69.7
	V206.7z M242.8,252.8c-24.3-24.1-36.5-53.3-36.5-87.6c0-34.1,12.2-64.5,36.5-88.6c24.3-24.1,53.8-36.1,88.4-36.1
	c34.4,0,63.7,12,88,36.1c24.3,24.1,36.5,54.6,36.5,88.6c0,34.3-12.2,63.5-36.5,87.6c-24.3,24.1-53.7,36.1-88,36.1
	C296.6,288.9,267.2,276.8,242.8,252.8z M568.5,288.9L568.5,288.9l-35.5-61.9l-36.8,61.9h-77.6l74-130.1L422.7,41.9h79.9l29.1,49.4
	L561,41.9h77.6l-67,116.2L649,288.9H568.5z M1006.4,313H681.5V15h324.8V313z"/>
</svg>
