<?xml version="1.0" encoding="utf-8"?>
<!-- Generator: Adobe Illustrator 15.1.0, SVG Export Plug-In . SVG Version: 6.00 Build 0)  -->
<!DOCTYPE svg PUBLIC "-//W3C//DTD SVG 1.1//EN" "http://www.w3.org/Graphics/SVG/1.1/DTD/svg11.dtd">
<svg version="1.1" id="KSL_TV_Logo_1_" xmlns="http://www.w3.org/2000/svg" xmlns:xlink="http://www.w3.org/1999/xlink" x="0px"
	 y="0px" width="100px" height="70px" viewBox="0 0 100 70" enable-background="new 0 0 100 70" xml:space="preserve">
<rect id="Clear_Box" fill="none" width="100" height="70"/>
<g id="KSL_TV_Logo">
	<circle fill="#FFFFFF" cx="81.547" cy="15.516" r="13.016"/>
	<g id="_x35_" opacity="0.25">
		<path fill="#8D8C8E" d="M85.959,17.877c0-2-1.623-3.623-3.62-3.623c-1.929,0-3.5,1.503-3.616,3.4h-3.604V9.651V6.532h15.853
			C88.598,4.047,85.254,2.5,81.548,2.5c-7.19,0-13.017,5.825-13.017,13.015c0,2.243,0.567,4.352,1.565,6.193h12.242
			C84.336,21.708,85.959,19.877,85.959,17.877"/>
		<path fill="#8D8C8E" d="M93.169,9.651H78.234v2.618c1.151-0.837,2.57-1.34,4.103-1.34c3.835,0,6.944,3.114,6.944,6.949
			c0,3.837-3.109,6.947-6.944,6.947h-9.885c2.347,2.289,5.559,3.707,9.096,3.707c7.192,0,13.015-5.827,13.015-13.017
			C94.563,13.404,94.062,11.414,93.169,9.651"/>
	</g>
	<polygon fill="#1D3464" points="92.006,31.303 87.644,43.386 83.279,31.303 81.468,31.303 79.229,31.303 67.128,31.303 
		67.128,34.144 72.734,34.144 72.734,48.746 75.867,48.746 75.867,34.144 80.335,34.144 85.971,48.582 89.217,48.582 95.966,31.303 
			"/>
	<circle fill="#FFFFFF" cx="34.327" cy="37.226" r="30.276"/>
	<g>
		<defs>
			<path id="SVGID_1_" d="M24.222,26.312h6.664L22.369,36.41l10.178,12.023h-7.055l-6.598-7.896l-2.599,3.055v4.841h-5.932V26.312
				h5.932v9.317L24.222,26.312z M39.956,43.719c0.795-0.22,1.286-0.754,1.286-1.454l0.041-0.026c0-1.09-0.892-1.67-3.84-2.303
				c-4.565-1.053-8.315-2.274-8.244-6.898v-0.102c0.05-4.197,3.568-7.013,8.688-7.013c3.631,0,6.568,0.93,8.938,2.847l-2.99,4.167
				c-2.009-1.348-4.214-2.137-6.202-2.137c-1.777,0-2.406,0.822-2.406,1.573v0.075c-0.033,1.114,0.775,1.597,3.938,2.291
				c4.904,1.081,8.191,2.679,8.089,6.834v0.103c-0.042,4.433-3.552,7.155-9.006,7.155c-1.14,0-2.514-0.328-2.754-0.386l-5.628-6.801
				c1.126,0.664,2.166,1.151,3.083,1.479c1.893,0.646,3.592,0.831,4.863,0.831C38.85,43.952,39.603,43.835,39.956,43.719
				 M4.052,37.254c0,16.693,13.564,30.246,30.272,30.246c12.751,0,23.686-7.888,28.135-19.066H48.148v-2.002
				c0.821-1.398,1.247-2.992,1.247-4.759V41.57c0-1.665-0.426-3.174-1.247-4.447V26.264h5.955v16.965h9.889
				c0.385-1.902,0.61-3.944,0.61-5.976c0-16.721-13.59-30.305-30.278-30.305C17.616,6.949,4.052,20.533,4.052,37.254"/>
		</defs>
		<clipPath id="SVGID_2_">
			<use xlink:href="#SVGID_1_"  overflow="visible"/>
		</clipPath>
		
			<radialGradient id="SVGID_3_" cx="-249.5894" cy="444.7256" r="8.5801" gradientTransform="matrix(0.9654 2.6689 2.6689 -0.9654 -911.7659 1133.0267)" gradientUnits="userSpaceOnUse">
			<stop  offset="0" style="stop-color:#27AAE1"/>
			<stop  offset="0.314" style="stop-color:#27AAE1"/>
			<stop  offset="1" style="stop-color:#002D65"/>
		</radialGradient>
		<polygon clip-path="url(#SVGID_2_)" fill="url(#SVGID_3_)" points="57.586,-12.422 83.969,60.492 11.041,86.877 -15.333,13.955 		
			"/>
	</g>
</g>
</svg>
